<?xml version="1.0" standalone="no"?>
<!DOCTYPE svg PUBLIC "-//W3C//DTD SVG 20010904//EN"
 "http://www.w3.org/TR/2001/REC-SVG-20010904/DTD/svg10.dtd">
<svg version="1.0" xmlns="http://www.w3.org/2000/svg"
 width="275.000000pt" height="362.000000pt" viewBox="0 0 275.000000 362.000000"
 preserveAspectRatio="xMidYMid meet">

<g transform="translate(0.000000,362.000000) scale(0.100000,-0.100000)"
fill="#c6c6c6" stroke="none">
<path d="M1215 3584 c-11 -3 -47 -9 -80 -16 -442 -82 -767 -329 -969 -735 -89
-179 -129 -359 -129 -578 0 -363 128 -673 386 -936 220 -225 470 -345 802
-385 72 -9 144 -23 160 -32 29 -14 495 -469 495 -482 0 -9 -97 -18 -330 -30
-299 -15 -380 -22 -375 -30 6 -9 116 -17 455 -30 134 -6 248 -14 253 -19 13
-13 -90 -118 -126 -130 -18 -5 -174 -11 -347 -13 l-315 -3 -50 25 c-61 30
-155 122 -155 153 0 15 54 76 175 197 164 164 193 200 162 200 -14 0 -460
-344 -490 -378 -14 -15 -16 -25 -9 -39 6 -10 66 -72 134 -139 101 -99 131
-123 168 -133 36 -10 110 -10 349 -2 166 6 334 11 371 11 66 0 71 2 107 38
112 109 233 249 233 268 0 15 -93 112 -301 315 -166 162 -318 306 -339 320
-32 22 -54 27 -137 32 -564 38 -1023 436 -1149 999 -26 113 -23 345 5 477 53
249 155 436 337 617 193 190 413 308 657 350 113 20 363 14 477 -11 407 -90
715 -346 893 -745 57 -127 82 -259 82 -440 0 -276 -64 -495 -205 -706 -96
-143 -302 -324 -457 -403 -46 -23 -61 -58 -20 -46 170 52 310 136 438 264 196
197 305 413 345 683 84 568 -225 1143 -746 1387 -202 94 -370 132 -588 130
-81 -1 -156 -3 -167 -5z"/>
<path d="M706 2958 c-28 -29 -78 -89 -110 -133 -94 -127 -103 -135 -154 -135
-49 0 -82 -14 -82 -35 0 -11 11 -15 39 -15 22 0 42 -4 45 -9 3 -5 -19 -57 -49
-115 -30 -58 -55 -117 -55 -130 0 -22 25 -54 35 -45 6 6 116 230 126 257 12
30 32 36 82 26 l42 -9 0 -92 c0 -84 2 -94 25 -118 31 -33 67 -28 122 15 34 27
37 28 43 11 17 -54 67 -61 119 -16 l28 24 28 -29 c32 -34 48 -36 94 -15 51 25
92 73 135 163 23 45 45 82 50 82 31 0 38 -69 11 -119 -23 -43 -27 -77 -13
-104 11 -23 20 -27 54 -27 42 0 87 18 109 45 12 14 16 12 42 -20 40 -48 73
-47 133 5 35 30 55 40 81 40 61 0 88 22 133 110 35 67 45 79 57 69 20 -16 17
-65 -6 -127 -11 -29 -20 -60 -20 -71 0 -53 90 -69 146 -26 18 14 36 25 39 25
3 0 21 -16 39 -35 27 -29 41 -35 73 -35 75 0 159 52 201 125 33 54 14 48 -47
-15 -64 -66 -116 -88 -160 -67 -29 14 -40 58 -19 74 7 5 32 15 56 23 93 29
161 124 127 177 -22 32 -70 30 -126 -6 -61 -39 -83 -66 -117 -142 -31 -69 -76
-109 -121 -109 -26 0 -26 12 -1 86 25 72 20 102 -26 143 -21 19 -34 41 -34 56
0 59 -40 34 -51 -33 -16 -106 -87 -207 -132 -189 -13 5 -12 13 9 64 28 68 29
91 8 121 -17 25 -68 30 -95 9 -43 -33 -51 -104 -18 -168 l20 -41 -22 -25 c-15
-16 -32 -23 -49 -21 -36 4 -38 53 -6 124 22 47 23 56 10 61 -20 7 -56 -28 -85
-83 -28 -55 -81 -104 -114 -104 -35 0 -38 14 -16 66 33 74 28 113 -19 159 -30
30 -40 46 -36 61 7 27 -17 39 -35 18 -7 -9 -14 -32 -15 -53 -4 -90 -119 -261
-174 -261 -34 0 -35 30 -6 112 28 79 28 98 -2 98 -11 0 -30 -26 -54 -73 -46
-88 -78 -127 -107 -127 -19 0 -21 6 -21 50 0 31 9 70 24 104 21 47 22 57 10
67 -22 18 -48 -12 -79 -89 -26 -67 -77 -132 -102 -132 -7 0 -19 11 -25 25 -21
46 28 286 93 461 20 52 21 64 10 78 -22 26 -42 19 -95 -36z m-21 -162 c-20
-64 -43 -121 -51 -127 -17 -14 -63 -4 -70 16 -8 21 140 244 153 231 3 -3 -11
-57 -32 -120z m1581 -131 c10 -24 -34 -83 -82 -111 -25 -15 -48 -24 -51 -21
-12 13 21 68 63 107 47 43 61 48 70 25z m-578 -30 c3 -33 -23 -105 -38 -105
-12 0 -30 33 -30 55 0 8 7 32 15 51 18 45 49 44 53 -1z"/>
<path d="M521 2165 c-104 -60 -181 -199 -181 -327 0 -100 47 -158 126 -158 48
0 71 10 121 52 l33 27 24 -24 c31 -31 42 -31 87 -1 39 27 114 50 129 41 6 -3
10 -13 10 -20 0 -21 44 -47 66 -39 10 4 30 16 42 28 l24 21 17 -21 c24 -30 52
-36 81 -19 14 8 31 17 37 21 7 3 27 -6 44 -20 17 -14 37 -26 45 -26 16 0 73
26 112 51 20 12 24 12 32 -1 27 -43 36 -50 68 -50 21 0 51 11 77 29 l42 29 28
-29 c14 -16 33 -29 40 -29 24 0 69 21 93 43 l22 21 16 -22 c18 -27 64 -29 104
-5 27 15 29 15 55 -5 36 -28 41 -28 95 8 47 32 100 40 100 16 0 -7 6 -19 14
-25 12 -10 24 0 65 56 59 81 87 102 108 80 12 -11 12 -22 3 -59 -15 -59 -2
-88 40 -88 36 0 100 60 100 93 0 19 -6 16 -39 -23 -50 -58 -67 -48 -50 28 9
39 10 58 1 77 -16 36 -61 34 -105 -5 -35 -30 -47 -30 -47 2 0 10 -4 18 -9 18
-25 0 -41 -14 -41 -36 0 -31 -42 -79 -63 -71 -15 6 -15 10 -2 41 18 43 19 88
3 104 -20 20 -55 13 -78 -15 -12 -15 -33 -32 -48 -39 -17 -7 -37 -30 -52 -58
-26 -52 -62 -86 -91 -86 -30 0 -24 59 12 125 23 42 28 60 20 68 -19 19 -43 -5
-83 -84 -42 -83 -80 -121 -118 -117 -21 3 -25 9 -28 43 -5 52 14 113 36 119 9
2 34 7 55 11 49 8 48 25 -3 25 -22 0 -40 4 -40 8 0 4 16 38 36 75 33 62 37 87
14 87 -16 0 -50 -43 -75 -96 -13 -28 -31 -57 -40 -64 -10 -8 -14 -22 -11 -39
7 -33 -40 -128 -74 -153 -32 -22 -71 -31 -89 -19 -9 6 -14 25 -13 53 2 52 46
121 81 126 21 3 22 1 16 -27 -5 -24 -3 -31 9 -31 27 0 40 38 21 66 -36 55
-121 13 -167 -84 -31 -64 -83 -103 -133 -100 -33 2 -41 7 -43 25 -3 19 6 27
50 46 57 25 108 76 108 107 0 19 -35 50 -56 50 -6 0 -31 -14 -56 -30 -34 -22
-55 -47 -78 -93 -38 -74 -57 -97 -82 -97 -15 0 -18 8 -18 46 0 41 6 53 50 106
77 92 132 227 110 268 -6 11 -15 20 -20 20 -31 0 -139 -189 -180 -315 -24 -71
-79 -143 -100 -130 -5 3 -10 27 -10 51 0 40 6 52 45 97 88 100 148 256 110
287 -16 13 -21 11 -51 -24 -38 -44 -127 -219 -144 -284 -6 -26 -20 -48 -36
-58 -32 -22 -41 -12 -26 29 15 43 15 90 0 105 -20 20 -55 13 -80 -15 -12 -16
-34 -33 -48 -39 -14 -6 -35 -31 -47 -55 -68 -137 -207 -173 -243 -63 -26 79
43 267 126 344 44 40 67 48 94 30 13 -8 10 -19 -19 -75 -40 -74 -34 -103 11
-61 45 41 61 131 30 159 -26 24 -70 21 -121 -8z m495 -150 c-20 -40 -43 -76
-51 -79 -16 -6 -10 15 26 86 34 67 53 92 57 78 3 -7 -12 -45 -32 -85z m184 76
c0 -11 -57 -120 -75 -145 -8 -11 -17 -17 -21 -14 -5 6 50 130 69 156 11 14 27
16 27 3z m-400 -196 c0 -34 -10 -55 -26 -55 -17 0 -19 61 -2 78 15 15 28 6 28
-23z m520 24 c0 -17 -66 -79 -84 -79 -24 0 -20 15 15 55 30 33 69 47 69 24z
m750 -13 c0 -14 -5 -37 -10 -51 -9 -23 -13 -25 -25 -15 -18 15 -19 31 -3 65
14 32 38 33 38 1z m-1334 -131 c-18 -27 -42 -30 -55 -8 -7 14 -4 31 11 64 l20
44 19 -40 c15 -34 16 -43 5 -60z m1269 48 c15 -36 15 -39 -6 -55 -32 -27 -49
-23 -49 11 0 37 16 81 30 81 5 0 17 -17 25 -37z"/>
<path d="M1862 2048 c-16 -16 -15 -35 3 -41 19 -8 60 26 51 41 -9 15 -39 15
-54 0z"/>
</g>
</svg>
