<?xml version="1.0" standalone="no"?>
<!DOCTYPE svg PUBLIC "-//W3C//DTD SVG 20010904//EN"
 "http://www.w3.org/TR/2001/REC-SVG-20010904/DTD/svg10.dtd">
<svg version="1.0" xmlns="http://www.w3.org/2000/svg"
 width="1024.000000pt" height="1024.000000pt" viewBox="0 0 1024.000000 1024.000000"
 preserveAspectRatio="xMidYMid meet">

<g transform="translate(0.000000,1024.000000) scale(0.100000,-0.100000)"
fill="#f5f5dc" stroke="none">
<path d="M4785 10070 c-361 -44 -724 -128 -982 -226 -34 -13 -66 -24 -71 -24
-5 0 -36 -12 -68 -26 -33 -14 -77 -33 -98 -42 -66 -29 -298 -147 -356 -182
-30 -18 -64 -38 -75 -44 -17 -10 -148 -97 -219 -146 -246 -170 -584 -509 -782
-785 -116 -161 -314 -483 -314 -510 0 -4 -8 -19 -18 -33 -66 -98 -247 -559
-281 -717 -5 -22 -18 -76 -29 -120 -196 -788 -100 -1744 248 -2470 91 -189
260 -473 362 -605 114 -148 159 -204 245 -301 262 -297 619 -595 878 -734 17
-9 53 -29 80 -45 351 -205 870 -367 1327 -415 327 -34 390 -44 456 -75 35 -17
78 -42 95 -56 78 -64 1290 -1271 1298 -1293 16 -41 -2 -48 -139 -55 -70 -4
-206 -13 -302 -21 -96 -8 -290 -19 -430 -25 -140 -6 -345 -17 -455 -24 -110
-8 -279 -17 -375 -21 -206 -7 -240 -11 -240 -30 0 -19 16 -23 170 -39 156 -18
435 -31 950 -46 328 -10 690 -31 793 -46 79 -12 64 -44 -105 -219 -95 -99
-140 -138 -176 -153 -46 -20 -76 -21 -628 -32 -318 -5 -640 -15 -714 -21 -223
-17 -342 -15 -458 9 -57 12 -116 28 -130 36 -15 8 -53 26 -86 41 -82 39 -202
132 -272 212 -32 37 -62 70 -65 73 -22 17 -69 109 -69 134 0 36 36 93 100 158
640 650 842 858 860 880 26 34 19 65 -15 74 -24 6 -82 -32 -211 -137 -23 -19
-117 -92 -209 -164 -91 -71 -208 -163 -258 -203 -51 -40 -105 -83 -121 -95
-15 -12 -45 -35 -66 -52 -21 -16 -74 -58 -117 -91 -43 -34 -126 -100 -184
-145 -59 -46 -123 -97 -143 -112 -47 -36 -96 -104 -96 -132 0 -11 11 -37 25
-56 39 -52 634 -647 680 -679 22 -15 70 -41 105 -56 63 -28 70 -29 275 -32
116 -2 422 4 680 13 259 10 636 19 838 21 233 2 381 7 402 14 54 18 100 62
328 312 119 130 224 245 234 255 48 50 166 183 188 213 34 46 34 101 -2 149
-26 35 -98 108 -499 500 -110 108 -414 406 -675 663 -261 256 -499 486 -529
511 -30 24 -82 57 -115 72 -55 26 -73 29 -220 36 -173 8 -423 39 -550 69 -44
10 -96 21 -115 25 -130 25 -467 142 -645 223 -79 36 -126 60 -240 122 -129 69
-284 172 -394 260 -31 25 -66 53 -77 61 -132 90 -485 461 -614 645 -169 241
-325 513 -406 709 -61 150 -84 212 -113 305 -17 58 -40 132 -51 165 -10 33
-22 78 -26 100 -3 22 -15 76 -25 120 -28 119 -59 453 -59 628 0 263 60 731
113 882 8 22 17 57 21 79 20 106 110 349 206 551 41 87 64 131 150 280 19 33
141 215 174 258 189 250 490 546 776 763 173 132 371 250 591 353 521 244
1081 332 1724 271 133 -12 386 -55 475 -80 36 -10 81 -21 100 -25 48 -9 338
-107 427 -144 97 -40 287 -134 358 -176 31 -19 60 -35 62 -35 3 0 23 -13 46
-29 23 -15 67 -45 97 -65 91 -60 101 -67 223 -165 299 -237 579 -561 826 -956
162 -259 321 -659 400 -1010 70 -312 87 -771 43 -1137 -13 -103 -29 -211 -36
-240 -8 -29 -17 -73 -21 -98 -12 -81 -102 -403 -132 -470 -8 -19 -21 -53 -28
-75 -27 -83 -128 -304 -186 -405 -254 -449 -604 -828 -1061 -1148 -37 -26 -79
-55 -95 -64 -15 -10 -50 -32 -78 -49 -59 -37 -81 -50 -195 -115 -47 -26 -88
-52 -92 -58 -13 -18 -9 -56 6 -62 14 -5 201 55 346 111 171 67 391 188 535
295 44 33 97 71 117 84 20 14 108 94 194 178 467 455 768 950 928 1528 40 144
82 367 103 540 27 232 25 645 -4 880 -40 313 -121 651 -211 880 -17 41 -40
100 -52 130 -31 78 -161 338 -224 446 -43 75 -143 229 -223 344 -18 25 -84
109 -151 190 -155 186 -423 439 -601 565 -23 17 -57 41 -75 55 -18 14 -66 45
-106 70 -39 25 -87 55 -106 67 -60 39 -288 158 -404 211 -77 36 -188 82 -195
82 -4 0 -21 7 -38 15 -32 14 -183 64 -312 103 -103 31 -282 69 -462 99 -143
23 -188 26 -473 29 -173 1 -346 -2 -385 -6z"/>
<path d="M3367 8420 c-49 -33 -170 -160 -273 -287 -72 -88 -126 -162 -286
-391 -113 -163 -189 -211 -303 -192 -42 7 -68 5 -107 -7 -58 -17 -122 -72
-112 -96 9 -24 60 -37 141 -37 41 0 83 -5 94 -10 20 -11 26 -58 10 -75 -9 -9
-42 -66 -109 -185 -58 -104 -132 -260 -156 -329 -34 -97 -34 -144 0 -193 29
-41 52 -48 76 -20 14 15 138 265 138 277 0 14 217 446 239 474 l25 34 103 -7
c168 -10 199 -31 189 -128 -26 -273 -17 -393 36 -473 81 -123 224 -107 372 41
37 37 70 62 77 59 6 -4 19 -27 29 -50 22 -52 89 -122 125 -131 16 -4 45 1 73
11 47 18 152 89 152 103 0 9 54 42 69 42 7 0 20 -19 31 -42 33 -74 88 -118
146 -118 51 0 150 32 200 65 57 38 148 126 182 176 48 72 72 110 72 115 0 3
25 58 56 122 31 64 70 145 86 180 16 35 36 66 44 69 36 14 104 -74 104 -134
-1 -15 -15 -66 -32 -113 -112 -309 -114 -321 -59 -398 81 -110 259 -87 429 55
28 25 58 43 64 41 7 -3 28 -31 48 -64 96 -157 228 -159 392 -5 106 98 130 111
212 111 95 1 145 13 201 51 72 49 88 75 213 339 35 73 73 130 87 130 14 0 67
-71 77 -102 13 -45 1 -98 -61 -263 -64 -169 -67 -245 -10 -310 78 -88 249 -63
404 60 22 18 45 35 52 38 20 12 43 -4 63 -42 21 -42 82 -101 132 -128 26 -14
56 -18 143 -18 100 0 116 3 175 29 36 16 79 39 95 51 17 12 35 24 42 26 25 9
146 124 181 173 75 104 102 176 66 176 -29 0 -54 -20 -75 -61 -29 -58 -183
-208 -253 -247 -74 -42 -180 -66 -237 -53 -72 16 -119 79 -119 161 0 50 33 85
94 100 73 19 194 69 243 102 70 47 175 156 201 210 13 26 25 74 28 110 6 73
-13 114 -68 148 -53 32 -90 34 -169 10 -126 -38 -296 -171 -371 -290 -45 -70
-98 -175 -98 -193 0 -25 -61 -131 -99 -170 -49 -53 -138 -112 -189 -128 -39
-11 -45 -10 -70 8 -30 22 -40 64 -23 97 20 41 70 182 85 242 34 133 16 183
-113 307 l-91 88 0 63 c0 50 -4 67 -19 81 -19 16 -21 16 -51 -5 -43 -31 -56
-63 -63 -155 -7 -82 -34 -193 -60 -242 -8 -15 -30 -59 -48 -98 -53 -112 -95
-164 -153 -191 -59 -28 -98 -30 -120 -8 -22 22 -20 47 9 105 61 118 80 188 80
292 l0 98 -47 45 c-48 45 -65 50 -148 44 -84 -6 -161 -86 -195 -204 -14 -47
-15 -70 -6 -142 9 -71 18 -101 56 -171 25 -47 45 -94 45 -105 0 -23 -102 -125
-138 -139 -39 -15 -88 -10 -106 10 -41 45 -28 176 31 320 19 47 44 98 54 113
33 46 18 78 -35 78 -66 0 -126 -66 -210 -233 -65 -127 -121 -194 -210 -251
-102 -65 -168 -67 -190 -5 -10 29 -7 39 58 209 21 52 40 122 43 156 8 88 -15
132 -127 242 l-93 91 7 58 c6 51 4 62 -13 77 -28 25 -60 16 -95 -27 -29 -37
-31 -44 -32 -130 -1 -77 -6 -102 -28 -152 -15 -33 -37 -82 -48 -110 -29 -68
-94 -200 -126 -255 -58 -100 -218 -230 -282 -230 -12 0 -35 14 -52 30 -28 29
-30 34 -24 82 9 69 73 255 132 385 25 56 -9 103 -75 103 -36 0 -72 -43 -120
-145 -43 -89 -138 -261 -165 -298 -12 -16 -42 -51 -68 -78 -51 -53 -85 -62
-125 -34 -68 48 -40 266 61 472 40 81 42 100 15 129 -33 35 -73 32 -110 -8
-30 -32 -84 -138 -96 -188 -10 -41 -60 -162 -88 -211 -32 -58 -138 -175 -176
-195 -16 -8 -39 -12 -53 -8 -49 12 -82 135 -65 246 5 35 16 112 24 173 8 60
23 150 34 200 11 49 24 110 29 135 25 115 89 344 121 435 43 117 85 222 102
257 11 21 19 55 19 76 0 33 -6 44 -35 66 -54 41 -82 42 -138 6z m-77 -255 c0
-14 -7 -42 -16 -63 -17 -41 -101 -292 -158 -474 -29 -93 -42 -122 -67 -142
-36 -31 -29 -31 -109 -5 -71 22 -100 42 -100 71 0 52 217 390 385 600 35 45
65 50 65 13z m4254 -675 c27 -33 27 -30 -9 -113 -27 -65 -140 -168 -245 -225
-51 -28 -99 -48 -107 -45 -22 9 -15 56 17 103 16 25 30 49 30 53 0 31 144 185
215 230 52 34 68 33 99 -3z m-1607 -16 c24 -24 25 -30 20 -107 -7 -117 -72
-267 -116 -267 -51 0 -79 164 -46 275 17 61 68 125 99 125 10 0 29 -12 43 -26z"/>
<path d="M2800 6122 c-118 -60 -160 -90 -235 -167 -130 -132 -241 -326 -301
-525 -26 -88 -29 -108 -29 -255 0 -154 1 -162 29 -225 40 -92 92 -150 170
-189 64 -33 66 -33 173 -29 95 4 115 8 163 34 65 34 153 99 194 143 17 17 37
31 46 31 8 0 33 -22 54 -49 52 -66 105 -87 163 -67 22 8 67 35 100 60 70 53
148 87 252 110 68 15 75 15 92 0 10 -9 20 -33 24 -54 5 -28 18 -49 46 -75 35
-32 44 -35 98 -35 77 0 93 7 170 75 70 62 71 62 116 -10 16 -24 36 -47 44 -51
77 -32 143 -20 225 41 33 25 65 45 71 45 6 0 32 -22 59 -49 66 -67 125 -95
185 -88 50 7 141 42 181 70 90 63 134 88 153 85 14 -2 33 -21 52 -53 16 -27
45 -63 64 -80 32 -28 40 -30 110 -29 69 0 83 4 146 38 39 21 92 56 119 77 27
22 54 39 62 39 7 0 23 -14 36 -31 45 -61 99 -107 134 -113 76 -15 171 22 261
100 33 30 64 54 68 54 4 0 31 -26 60 -57 l54 -58 68 1 c58 0 77 5 125 32 30
18 61 39 68 47 22 26 56 17 92 -24 55 -64 119 -85 183 -61 15 6 54 32 88 58
80 61 143 89 215 98 66 7 89 -7 78 -50 -8 -34 27 -76 64 -76 33 0 40 8 140
160 100 151 209 260 261 260 26 0 82 -69 76 -94 -39 -159 -48 -222 -35 -261
17 -53 66 -85 127 -85 73 0 167 71 244 184 29 43 34 105 10 113 -6 2 -32 -26
-56 -64 -79 -119 -134 -162 -175 -136 -37 23 -37 39 1 162 20 66 37 135 37
153 0 49 -51 125 -97 144 -73 31 -141 3 -258 -104 -32 -29 -63 -51 -69 -49 -6
2 -12 25 -14 50 -8 122 -140 94 -157 -34 -10 -77 -49 -143 -101 -174 -47 -27
-74 -31 -92 -13 -18 18 -15 43 10 91 25 50 58 169 58 215 0 95 -110 164 -193
121 -31 -16 -87 -71 -87 -85 0 -25 -43 -64 -83 -75 -63 -17 -109 -59 -147
-136 -75 -148 -136 -225 -210 -263 -68 -35 -105 -21 -120 45 -13 58 5 132 56
226 25 46 52 98 60 114 8 17 21 41 29 55 20 35 19 66 -5 90 -31 31 -50 25
-106 -34 -51 -54 -90 -124 -124 -221 -58 -167 -194 -313 -299 -323 -41 -3 -49
-1 -76 28 -29 31 -30 34 -29 128 1 165 59 313 129 327 11 2 60 6 109 9 104 6
150 27 122 54 -13 13 -33 16 -102 14 -55 -2 -91 1 -100 9 -20 16 -17 62 5 90
10 13 40 65 66 114 114 213 119 229 70 255 -21 11 -29 11 -51 0 -42 -23 -111
-126 -182 -269 -43 -88 -81 -153 -110 -183 -42 -45 -44 -49 -33 -79 17 -50 13
-89 -19 -178 -55 -150 -103 -217 -205 -287 -37 -25 -119 -54 -154 -54 -44 0
-89 35 -102 78 -17 58 1 171 41 255 43 92 143 197 186 197 45 0 61 -23 45 -63
-21 -53 -24 -66 -17 -92 13 -50 77 -26 107 38 33 73 20 129 -41 181 -44 37
-100 35 -187 -6 -102 -49 -165 -119 -242 -272 -53 -106 -73 -135 -126 -184
-88 -81 -160 -115 -242 -116 -62 -1 -66 0 -94 34 -20 24 -29 45 -29 71 0 31 5
40 39 62 21 14 58 31 81 37 106 28 240 132 284 220 35 67 39 96 21 134 -20 42
-40 61 -86 80 -31 13 -40 13 -92 -5 -122 -41 -257 -163 -322 -291 -19 -37 -35
-74 -35 -82 0 -19 -60 -128 -90 -162 -37 -43 -96 -77 -120 -69 -42 13 -53 47
-48 154 3 95 5 102 38 148 19 26 47 61 62 76 76 77 164 196 211 287 13 25 28
54 34 65 55 99 113 270 120 356 6 74 5 76 -27 112 -18 20 -41 37 -51 37 -52 0
-188 -194 -318 -455 -88 -177 -107 -226 -196 -505 -39 -122 -94 -202 -173
-255 -71 -47 -100 -25 -118 91 -13 86 30 193 107 264 34 32 117 138 160 205
76 117 131 231 179 373 27 77 32 105 28 158 -3 54 -8 68 -33 94 -16 16 -36 30
-45 30 -22 0 -88 -71 -152 -165 -122 -178 -244 -432 -327 -682 -28 -84 -56
-161 -63 -172 -18 -29 -84 -63 -116 -59 -39 4 -40 40 -4 131 68 168 45 283
-61 306 -68 16 -131 -21 -188 -111 -20 -31 -41 -50 -58 -55 -48 -11 -100 -42
-125 -75 -13 -18 -46 -75 -71 -126 -34 -67 -65 -112 -109 -156 -65 -67 -158
-139 -191 -149 -11 -3 -40 -13 -65 -22 -49 -18 -85 -15 -152 15 -55 24 -93 64
-126 131 -76 158 12 544 186 814 120 188 245 294 345 295 44 0 87 -35 87 -72
-1 -37 -71 -180 -116 -237 -42 -52 -55 -88 -42 -115 6 -14 19 -28 30 -32 19
-6 73 22 100 53 41 45 101 193 123 300 9 44 -26 121 -73 158 -32 26 -47 30
-107 33 -64 2 -76 -1 -145 -36z m1398 -225 c6 -50 -172 -399 -227 -444 -27
-23 -41 -16 -35 20 8 39 170 371 190 388 8 6 14 16 14 22 0 16 32 48 44 44 6
-2 12 -15 14 -30z m401 9 c14 -16 7 -55 -20 -106 -9 -19 -36 -73 -59 -120 -23
-47 -54 -105 -70 -130 -16 -25 -38 -62 -49 -82 -18 -32 -55 -57 -67 -46 -22
23 212 498 245 498 5 0 14 -6 20 -14z m319 -478 c33 -33 -15 -122 -105 -192
-94 -74 -155 -84 -139 -22 12 47 91 150 146 189 56 39 78 45 98 25z m-1407
-39 c12 -24 -13 -158 -37 -196 -22 -35 -60 -30 -73 8 -17 50 -14 141 6 169 42
61 78 67 104 19z m3493 15 c22 -21 20 -63 -5 -137 -25 -74 -44 -107 -64 -107
-21 0 -55 59 -55 96 0 35 23 107 46 141 17 27 55 30 78 7z m-3717 -185 c70
-147 75 -165 59 -202 -16 -40 -76 -87 -110 -87 -30 0 -63 29 -72 64 -7 29 36
176 66 224 23 37 39 37 57 1z m3501 9 c5 -7 17 -38 26 -69 9 -31 23 -62 31
-69 8 -7 15 -27 15 -45 0 -25 -9 -39 -42 -66 -58 -47 -78 -57 -102 -51 -53 12
-60 77 -20 204 29 92 38 108 64 108 10 0 22 -6 28 -12z"/>
<path d="M6457 5782 c-58 -39 -73 -86 -37 -122 37 -37 119 -19 154 34 22 35
20 53 -9 81 -29 30 -69 32 -108 7z"/>
</g>
</svg>
