<?xml version="1.0" standalone="no"?>
<!DOCTYPE svg PUBLIC "-//W3C//DTD SVG 20010904//EN"
 "http://www.w3.org/TR/2001/REC-SVG-20010904/DTD/svg10.dtd">
<svg version="1.0" xmlns="http://www.w3.org/2000/svg"
 width="622.000000pt" height="477.000000pt" viewBox="0 0 622.000000 477.000000"
 preserveAspectRatio="xMidYMid meet">

<g transform="translate(0.000000,477.000000) scale(0.100000,-0.100000)"
fill="#000000" stroke="none">
<path d="M1630 4729 c-81 -8 -174 -38 -236 -75 -55 -33 -194 -167 -218 -210
-92 -169 -117 -316 -81 -489 19 -93 30 -120 76 -196 90 -148 240 -255 412
-293 l27 -6 0 -543 c1 -642 5 -707 56 -813 82 -171 250 -300 423 -326 44 -6
71 -15 71 -23 0 -29 72 -153 112 -193 47 -48 132 -102 194 -123 22 -7 79 -13
131 -12 84 0 98 3 172 38 203 96 300 308 245 535 -22 91 -91 192 -169 247
-271 192 -626 42 -695 -295 l-13 -63 -41 6 c-152 24 -312 175 -355 335 -8 32
-11 165 -9 473 l3 427 50 -46 c102 -95 154 -121 330 -163 26 -6 32 -14 42 -54
32 -130 129 -250 250 -308 58 -29 81 -34 157 -37 130 -6 218 26 320 113 56 49
114 148 136 233 l11 42 174 0 174 0 11 -42 c31 -114 110 -226 200 -283 77 -48
151 -67 252 -63 79 2 103 8 158 34 78 37 139 90 190 165 57 83 73 150 68 279
-5 119 -24 173 -93 262 -35 44 -142 128 -164 128 -6 0 -19 4 -29 9 -26 15
-107 31 -149 31 -53 -1 -144 -24 -199 -50 -25 -13 -76 -53 -113 -90 -64 -66
-91 -115 -127 -235 l-9 -30 -164 -3 c-91 -1 -168 1 -173 6 -4 4 -17 39 -27 76
-34 124 -132 236 -250 287 -178 78 -380 27 -512 -127 -32 -37 -71 -118 -96
-199 -8 -28 -12 -30 -52 -27 -24 1 -73 18 -114 39 -123 61 -215 176 -248 308
-15 59 -8 75 33 75 204 2 452 207 521 430 45 148 43 282 -7 429 -51 149 -194
305 -337 368 -80 35 -214 52 -319 42z m201 -123 c82 -25 152 -67 219 -132 168
-161 209 -409 105 -618 -88 -175 -264 -286 -456 -286 -248 0 -465 194 -501
448 -34 246 97 476 326 569 71 28 93 33 171 33 50 0 111 -6 136 -14z m889
-1320 c104 -54 171 -143 191 -256 20 -112 -18 -226 -103 -308 -118 -115 -332
-111 -448 9 -95 98 -120 219 -76 364 24 77 129 180 207 204 52 16 188 8 229
-13z m1235 -5 c222 -105 264 -408 79 -569 -58 -50 -122 -72 -212 -72 -118 0
-203 45 -271 144 -76 111 -69 296 15 397 77 92 149 128 259 129 57 0 81 -5
130 -29z m-1237 -1091 c99 -44 183 -162 198 -276 17 -137 -69 -290 -196 -347
-63 -29 -197 -29 -260 0 -90 40 -155 116 -184 215 -20 70 -20 114 0 192 49
191 263 295 442 216z"/>
<path d="M1516 4391 c-53 -35 -55 -47 -56 -294 0 -179 3 -234 14 -256 18 -34
85 -66 123 -58 26 5 240 122 253 138 3 3 36 23 74 44 57 32 72 45 88 83 19 42
19 46 3 88 -15 41 -26 49 -153 125 -75 44 -162 96 -194 115 -64 39 -109 43
-152 15z m148 -144 c39 -24 108 -65 154 -92 53 -32 82 -55 80 -64 -2 -8 -28
-29 -58 -46 -30 -18 -99 -57 -152 -88 -54 -32 -102 -57 -108 -57 -6 0 -10 71
-10 195 0 142 3 195 12 195 6 0 43 -19 82 -43z"/>
<path d="M2699 3112 c-15 -9 -56 -48 -93 -86 l-66 -68 -40 36 c-22 20 -46 36
-53 36 -26 0 -57 -31 -57 -58 0 -38 114 -152 151 -152 20 0 52 27 137 115 67
68 112 122 112 134 0 21 -36 61 -54 61 -6 0 -23 -8 -37 -18z"/>
<path d="M3858 3043 l-89 -88 -27 32 c-35 40 -66 49 -97 29 -41 -27 -32 -58
36 -131 88 -94 93 -93 229 48 84 85 110 118 110 139 0 27 -31 58 -59 58 -7 0
-54 -39 -103 -87z"/>
<path d="M680 610 c0 -36 3 -40 25 -40 23 0 25 4 25 40 0 36 -2 40 -25 40 -22
0 -25 -4 -25 -40z"/>
<path d="M2310 370 l0 -281 28 3 c19 2 28 9 30 26 l3 23 30 -26 c35 -29 102
-34 147 -11 96 49 110 277 22 361 -43 41 -112 46 -162 11 l-37 -25 -3 97 -3
97 -27 3 -28 3 0 -281z m223 50 c64 -76 37 -267 -41 -284 -76 -17 -122 40
-122 152 0 117 28 161 102 162 28 0 42 -7 61 -30z"/>
<path d="M4680 610 c0 -38 2 -40 30 -40 28 0 30 2 30 40 0 38 -2 40 -30 40
-28 0 -30 -2 -30 -40z"/>
<path d="M175 614 c-68 -35 -100 -88 -114 -189 -19 -129 15 -248 86 -302 33
-25 44 -28 119 -28 68 0 87 4 111 21 27 21 28 23 31 133 l3 111 -71 0 c-68 0
-70 -1 -70 -24 0 -21 5 -25 38 -28 l37 -3 3 -64 c4 -84 -10 -101 -86 -101 -48
0 -58 4 -87 33 -41 41 -60 121 -52 225 6 81 29 135 70 166 37 27 114 26 161
-4 l36 -22 0 31 c0 24 -7 34 -30 46 -39 20 -146 20 -185 -1z"/>
<path d="M1400 360 l0 -270 30 0 29 0 3 138 3 137 102 3 102 3 3 -138 3 -138
30 0 30 0 0 265 0 265 -30 0 -30 0 -3 -103 -3 -103 -102 3 -102 3 -3 103 -3
102 -29 0 -30 0 0 -270z"/>
<path d="M3301 608 c-6 -13 -31 -93 -56 -178 -26 -85 -59 -194 -75 -242 -15
-48 -26 -89 -22 -92 3 -3 18 -6 33 -6 25 0 29 5 43 54 9 30 16 61 16 70 0 21
31 27 124 24 l78 -3 22 -70 c21 -66 24 -70 51 -70 17 0 30 5 29 10 -1 12 -72
246 -123 405 l-36 115 -38 3 c-31 3 -38 -1 -46 -20z m88 -180 c19 -64 31 -124
27 -133 -5 -13 -19 -15 -73 -13 -65 3 -68 4 -67 28 1 21 43 190 60 239 8 25
19 0 53 -121z"/>
<path d="M1060 550 l0 -60 -55 0 c-48 0 -55 -2 -55 -20 0 -18 7 -20 55 -20
l55 0 0 -122 c0 -139 11 -192 43 -213 13 -8 55 -17 95 -21 l72 -7 0 27 c0 25
-2 26 -53 26 -88 0 -91 5 -95 169 l-4 141 76 0 c69 0 76 2 76 20 0 18 -7 20
-75 20 l-75 0 0 60 0 60 -30 0 -30 0 0 -60z"/>
<path d="M4170 550 l0 -60 -50 0 c-43 0 -50 -3 -50 -20 0 -17 7 -20 49 -20
l49 0 4 -142 c4 -189 13 -203 138 -214 l70 -7 0 27 c0 25 -2 26 -54 26 -47 0
-57 4 -76 27 -19 24 -20 37 -18 152 l3 126 73 3 c64 3 72 5 72 22 0 18 -7 20
-75 20 l-75 0 0 60 0 60 -30 0 -30 0 0 -60z"/>
<path d="M3769 491 c-95 -31 -145 -139 -119 -256 22 -97 82 -145 183 -145 81
0 117 15 117 50 l0 29 -42 -19 c-52 -23 -78 -25 -123 -6 -92 39 -111 198 -33
277 30 29 35 31 94 27 43 -3 69 -10 83 -22 21 -19 21 -19 21 12 0 22 -7 35
-21 43 -28 15 -127 21 -160 10z"/>
<path d="M5055 486 c-69 -32 -95 -84 -95 -193 0 -91 26 -154 74 -184 45 -28
139 -26 182 3 56 39 69 71 69 178 0 104 -14 144 -67 183 -34 26 -121 33 -163
13z m139 -66 c31 -37 40 -83 33 -160 -6 -67 -26 -103 -67 -120 -75 -31 -132
23 -138 132 -5 83 1 108 34 147 21 26 33 31 69 31 36 0 48 -5 69 -30z"/>
<path d="M5545 489 c-11 -6 -30 -21 -42 -32 l-23 -20 0 26 c0 23 -4 27 -30 27
l-30 0 0 -200 0 -200 30 0 30 0 0 135 c0 185 18 225 103 225 63 0 71 -21 77
-199 l5 -156 28 -3 27 -3 0 148 c0 159 -9 210 -40 238 -24 22 -107 30 -135 14z"/>
<path d="M5944 486 c-43 -19 -64 -53 -64 -102 0 -59 23 -82 104 -104 87 -25
116 -43 116 -75 0 -60 -74 -87 -163 -61 -69 20 -67 20 -67 -8 0 -31 41 -46
129 -46 84 0 130 23 150 74 11 30 12 44 2 76 -14 46 -51 69 -144 89 -46 10
-60 18 -67 37 -13 34 4 72 35 80 29 7 121 1 148 -11 13 -6 17 -2 17 18 0 30
-15 37 -100 43 -44 3 -75 0 -96 -10z"/>
<path d="M580 471 c0 -17 8 -20 48 -23 l47 -3 0 -150 0 -150 -62 -3 c-60 -3
-63 -4 -63 -28 l0 -25 158 3 c153 3 157 4 160 25 3 21 -1 22 -65 25 l-68 3 -3
173 -2 172 -75 0 c-68 0 -75 -2 -75 -19z"/>
<path d="M1863 474 c-3 -8 -3 -77 -1 -152 8 -203 29 -239 136 -230 44 4 60 10
78 31 24 28 34 26 34 -10 0 -18 5 -23 25 -23 l25 0 0 200 0 200 -25 0 -25 0 0
-125 c0 -148 -15 -200 -64 -220 -42 -18 -84 -8 -104 23 -14 21 -18 56 -20 174
l-4 148 -24 0 c-14 0 -27 -7 -31 -16z"/>
<path d="M4580 471 c0 -17 8 -20 48 -23 l47 -3 3 -152 3 -153 -66 0 c-63 0
-65 -1 -65 -25 l0 -25 160 0 160 0 0 25 c0 24 -2 25 -65 25 l-65 0 0 175 0
175 -80 0 c-73 0 -80 -2 -80 -19z"/>
</g>
</svg>
