<?xml version="1.0" standalone="no"?>
<!DOCTYPE svg PUBLIC "-//W3C//DTD SVG 20010904//EN"
 "http://www.w3.org/TR/2001/REC-SVG-20010904/DTD/svg10.dtd">
<svg version="1.0" xmlns="http://www.w3.org/2000/svg"
 width="770.000000pt" height="331.000000pt" viewBox="0 0 770.000000 331.000000"
 preserveAspectRatio="xMidYMid meet">

<g transform="translate(0.000000,331.000000) scale(0.100000,-0.100000)"
fill="#000000" stroke="none">
<path d="M5232 2656 c-59 -19 -107 -58 -139 -114 l-28 -47 -3 -687 -3 -688
-352 0 c-280 0 -357 -3 -372 -13 -15 -12 -17 -24 -13 -86 13 -181 160 -337
351 -372 219 -40 445 118 487 340 6 33 10 326 10 764 0 694 0 710 20 742 22
36 73 65 115 65 60 0 124 -57 132 -119 7 -50 33 -76 68 -67 33 8 45 41 35 94
-25 138 -177 231 -308 188z m-182 -1657 c0 -32 -59 -137 -94 -166 -97 -82
-240 -103 -348 -50 -33 16 -76 49 -102 78 -42 47 -82 132 -70 150 3 5 142 9
310 9 303 0 304 0 304 -21z"/>
<path d="M3553 2050 c-21 -9 -43 -38 -43 -59 0 -24 41 -51 75 -51 37 0 75 28
75 55 0 22 -45 65 -67 64 -10 0 -28 -4 -40 -9z"/>
<path d="M3876 2030 c-36 -32 -56 -91 -56 -165 0 -33 -1 -34 -42 -37 -37 -3
-43 -6 -46 -27 -5 -30 20 -51 60 -51 l28 0 0 -188 c0 -212 5 -232 64 -232 17
0 37 5 44 12 9 9 12 69 12 210 l0 198 44 0 c45 0 76 18 76 44 0 22 -23 34 -70
38 l-45 3 3 55 c2 30 8 61 14 68 6 6 32 12 59 12 44 0 51 3 61 26 11 23 10 29
-11 45 -18 15 -40 19 -92 19 -62 0 -72 -3 -103 -30z"/>
<path d="M746 2028 c-24 -34 -24 -642 0 -676 15 -21 20 -22 203 -22 181 0 189
1 239 26 60 30 86 62 102 126 21 83 -22 172 -102 208 l-38 17 37 24 c52 34 75
70 80 126 7 71 -27 129 -96 165 -52 28 -56 28 -232 28 -172 0 -178 -1 -193
-22z m318 -82 c95 -39 87 -168 -12 -196 -20 -5 -72 -10 -114 -10 l-78 0 0 103
c0 57 3 107 7 110 12 13 163 7 197 -7z m-10 -296 c84 -19 120 -75 97 -151 -18
-60 -70 -81 -193 -77 l-93 3 -3 104 c-1 58 0 111 2 118 6 15 128 18 190 3z"/>
<path d="M4762 2038 c-17 -17 -17 -679 0 -696 7 -7 27 -12 44 -12 63 0 64 7
64 360 0 353 -1 360 -64 360 -17 0 -37 -5 -44 -12z"/>
<path d="M3219 1994 c-8 -10 -16 -49 -19 -88 l-5 -71 -39 -5 c-73 -9 -75 -72
-2 -78 l36 -3 0 -157 c1 -221 19 -257 133 -269 69 -7 127 16 127 49 0 36 -19
48 -72 48 -43 0 -50 3 -58 26 -6 14 -10 88 -10 164 l0 139 51 3 c94 5 96 69 3
78 l-49 5 -3 75 c-2 41 -8 80 -14 87 -15 18 -63 16 -79 -3z"/>
<path d="M1568 1825 c-63 -23 -106 -64 -138 -128 -96 -191 47 -396 262 -373
122 12 215 83 165 124 -10 8 -33 5 -87 -14 -119 -42 -200 -19 -234 66 -9 22
-16 45 -16 50 0 6 68 10 178 10 187 0 202 3 202 45 0 40 -31 124 -57 155 -14
17 -44 40 -67 52 -52 27 -156 33 -208 13z m167 -91 c25 -16 59 -89 50 -105 -8
-11 -252 -12 -259 0 -11 18 39 96 74 114 40 20 96 17 135 -9z"/>
<path d="M2090 1821 c-73 -26 -102 -70 -65 -101 11 -9 26 -7 70 9 112 42 205
18 205 -53 l0 -33 -92 -7 c-104 -7 -186 -38 -213 -80 -26 -39 -30 -106 -10
-149 45 -95 200 -114 290 -36 l35 31 0 -24 c0 -31 18 -48 50 -48 54 0 60 20
60 201 0 175 -10 220 -58 262 -53 48 -177 60 -272 28z m210 -291 c0 -80 -49
-130 -127 -130 -66 1 -102 49 -78 106 17 41 65 60 163 63 l42 1 0 -40z"/>
<path d="M5447 1824 c-66 -21 -127 -83 -150 -153 -22 -67 -22 -115 0 -182 67
-207 383 -229 486 -35 29 55 31 193 3 246 -26 49 -65 88 -111 112 -53 28 -163
33 -228 12z m169 -89 c60 -39 85 -178 46 -255 -25 -51 -78 -83 -125 -77 -85
11 -122 64 -122 177 0 62 4 82 24 114 40 64 116 81 177 41z"/>
<path d="M6725 1821 c-22 -10 -49 -28 -59 -40 -25 -27 -36 -27 -36 2 0 32 -18
47 -56 47 -63 0 -64 -8 -64 -351 0 -284 1 -307 18 -322 22 -20 73 -22 90 -5 8
8 12 52 12 130 0 65 3 118 6 118 4 0 21 -13 40 -29 79 -70 189 -66 266 7 50
48 73 110 73 197 0 94 -18 148 -67 201 -60 65 -143 82 -223 45z m91 -76 c52
-22 78 -86 72 -180 -7 -109 -46 -159 -124 -159 -76 0 -129 76 -127 186 1 81
23 125 73 150 43 22 60 22 106 3z"/>
<path d="M2565 1814 c-24 -25 -18 -353 8 -404 48 -97 203 -118 289 -39 36 35
38 35 38 6 0 -32 18 -47 56 -47 59 0 64 18 64 250 0 233 -4 250 -64 250 -19 0
-38 -6 -44 -12 -6 -7 -12 -82 -14 -168 -4 -175 -13 -206 -72 -234 -50 -23 -81
-20 -118 13 l-33 29 -5 177 c-5 190 -7 195 -62 195 -15 0 -34 -7 -43 -16z"/>
<path d="M3542 1818 c-17 -17 -17 -459 0 -476 7 -7 27 -12 44 -12 59 0 64 18
64 250 0 232 -5 250 -64 250 -17 0 -37 -5 -44 -12z"/>
<path d="M4161 1816 c-9 -10 -11 -69 -9 -205 3 -216 7 -227 88 -268 71 -37
153 -26 215 29 32 27 35 28 35 10 0 -29 27 -52 60 -52 58 0 60 10 60 250 0
240 -2 250 -60 250 -55 0 -60 -16 -60 -183 0 -135 -2 -156 -20 -185 -40 -65
-137 -79 -180 -25 -18 23 -20 40 -20 187 0 185 -7 206 -64 206 -19 0 -39 -6
-45 -14z"/>
<path d="M5932 1818 c-8 -8 -12 -64 -12 -187 0 -150 3 -182 19 -217 46 -102
194 -123 287 -42 30 27 34 28 34 11 0 -43 77 -72 108 -41 17 17 17 459 0 476
-18 18 -73 14 -91 -6 -14 -16 -17 -43 -17 -174 0 -142 -2 -158 -21 -182 -40
-50 -94 -67 -144 -44 -48 21 -55 52 -55 226 0 141 -2 161 -18 175 -22 20 -73
22 -90 5z"/>
</g>
</svg>
