<?xml version="1.0" standalone="no"?>
<!DOCTYPE svg PUBLIC "-//W3C//DTD SVG 20010904//EN"
 "http://www.w3.org/TR/2001/REC-SVG-20010904/DTD/svg10.dtd">
<svg version="1.0" xmlns="http://www.w3.org/2000/svg"
 width="512.000000pt" height="512.000000pt" viewBox="0 0 512.000000 512.000000"
 preserveAspectRatio="xMidYMid meet">

<g transform="translate(0.000000,512.000000) scale(0.100000,-0.100000)"
fill="#c6c6c6" stroke="none">
<path d="M914 4595 c-199 -43 -360 -213 -395 -418 -32 -192 57 -396 222 -506
175 -117 408 -112 583 13 218 156 275 470 125 695 -118 176 -328 261 -535 216z"/>
<path d="M1880 4130 l0 -480 27 11 c69 26 169 87 248 150 l86 70 67 -60 c37
-32 92 -85 122 -116 l55 -57 -65 -60 c-171 -157 -387 -267 -630 -320 -89 -20
-133 -21 -687 -25 l-593 -4 0 -1365 0 -1364 170 0 170 0 2 512 3 513 167 3
168 2 2 -512 3 -513 170 0 170 0 3 1191 2 1190 123 12 c67 7 143 15 170 19
l47 6 0 -272 0 -271 1365 0 1365 0 0 1110 0 1110 -1365 0 -1365 0 0 -480z"/>
<path d="M2427 2115 c-85 -23 -160 -68 -227 -135 -201 -201 -200 -522 1 -720
281 -277 754 -146 854 235 69 268 -97 549 -366 620 -66 18 -197 18 -262 0z"/>
<path d="M3963 2115 c-192 -52 -349 -230 -372 -423 -33 -265 127 -500 385
-567 271 -71 560 112 619 392 20 92 19 136 -5 229 -46 178 -179 315 -359 368
-67 20 -197 20 -268 1z"/>
<path d="M2093 829 c-108 -41 -196 -154 -210 -267 l-6 -52 683 0 683 0 -6 52
c-14 114 -103 226 -213 267 -52 20 -75 21 -467 20 -387 0 -415 -1 -464 -20z"/>
<path d="M3660 841 c-128 -39 -221 -151 -245 -293 l-6 -38 601 0 600 0 0 170
0 170 -462 -1 c-255 0 -474 -4 -488 -8z"/>
</g>
</svg>
