<svg width="44" height="23" viewBox="0 0 44 23" fill="none" xmlns="http://www.w3.org/2000/svg">
<rect x="0.5" width="43" height="22.8272" rx="11.4136" fill="#EBE8FE"/>
<path d="M32.8748 6.66113C32.334 6.66113 31.8276 6.87032 31.4458 7.2497L29.9101 8.78138C29.495 9.19503 29.2827 9.76822 29.3266 10.3556C29.3302 10.3875 29.3325 10.4206 29.3361 10.4525C29.3918 10.904 29.5899 11.3105 29.9101 11.6296C30.1318 11.8507 30.4046 12.0185 30.6999 12.1154C30.7153 12.204 30.7236 12.295 30.7236 12.3848C30.7236 12.7902 30.5659 13.1708 30.2789 13.4568L30.184 13.5513C29.6705 13.3764 29.2151 13.0928 28.8273 12.7075C28.3138 12.1958 27.9747 11.5505 27.8466 10.8413L27.8288 10.7421L27.7505 10.8059C27.6984 10.8484 27.6474 10.8945 27.6011 10.9406L26.0642 12.4723C25.2768 13.2571 25.2768 14.5346 26.0642 15.3206C26.4579 15.7129 26.9762 15.9091 27.4932 15.9091C28.0103 15.9091 28.5285 15.7129 28.9222 15.3206L30.4591 13.7889C31.2466 13.0041 31.2466 11.7266 30.4591 10.9418C30.2492 10.7326 29.999 10.5754 29.7156 10.4738C29.7002 10.3816 29.6919 10.2894 29.6919 10.1996C29.6919 9.75877 29.8674 9.34039 30.1864 9.02129C30.701 9.19621 31.1564 9.47985 31.5418 9.86396C32.0542 10.3745 32.3933 11.0198 32.5226 11.7301L32.5404 11.8294L32.6186 11.7656C32.6708 11.723 32.7218 11.6769 32.7692 11.6296L34.3062 10.0991C35.0936 9.31439 35.0936 8.03681 34.3062 7.25088C33.9255 6.8715 33.4179 6.66231 32.8772 6.66231L32.8748 6.66113Z" fill="#1C3C3C"/>
<path d="M32.0508 1.06152H11.9488C6.2209 1.06152 1.56152 5.70502 1.56152 11.4134C1.56152 17.1217 6.2209 21.7652 11.9488 21.7652H32.0508C37.7787 21.7652 42.4381 17.1217 42.4381 11.4134C42.4381 5.70502 37.7787 1.06152 32.0508 1.06152ZM22.1356 17.2919C21.8035 17.3605 21.4312 17.3735 21.1786 17.1087C21.0849 17.3226 20.8679 17.2104 20.6983 17.182C20.6829 17.2257 20.6698 17.2635 20.6544 17.3073C20.0947 17.3451 19.6749 16.7754 19.408 16.3453C18.8779 16.0604 18.2767 15.8855 17.7359 15.5865C17.7039 16.0793 17.813 16.6892 17.3422 17.0083C17.3185 17.9549 18.7807 17.1194 18.9135 17.8261C18.8092 17.8368 18.6941 17.8096 18.6111 17.8899C18.2304 18.2599 17.7917 17.611 17.3529 17.8781C16.7635 18.1748 16.703 18.4159 15.9737 18.4773C15.9334 18.417 15.95 18.3757 15.9844 18.339C16.1895 18.1015 16.2037 17.8202 16.556 17.7186C16.1943 17.6618 15.8919 17.8604 15.5883 18.0188C15.1922 18.1795 15.1957 17.6547 14.5862 18.0459C14.5186 17.9916 14.5506 17.9419 14.5897 17.8994C14.7451 17.7115 14.9479 17.6831 15.1779 17.6937C14.049 17.0662 13.5177 18.4608 12.9959 17.7682C12.8394 17.8096 12.7801 17.9502 12.6816 18.0507C12.5963 17.9573 12.6615 17.845 12.665 17.7351C12.5631 17.6878 12.4338 17.6642 12.4646 17.5023C12.2642 17.4349 12.1266 17.5531 11.9784 17.6654C11.8444 17.5626 12.0685 17.4101 12.11 17.3026C12.2298 17.0945 12.5014 17.26 12.6401 17.1111C13.0327 16.8889 13.5805 17.2505 14.0288 17.1891C14.3751 17.2328 14.8032 16.8783 14.6289 16.5261C14.2589 16.0557 14.3253 15.4399 14.317 14.8762C14.2707 14.5488 13.4809 14.1305 13.2521 13.7759C12.9698 13.4568 12.7492 13.0881 12.5298 12.7241C11.7353 11.1912 11.9855 9.22104 10.9846 7.79691C10.5316 8.04628 9.94223 7.92809 9.55088 7.59363C9.3398 7.78509 9.33031 8.03564 9.31371 8.30156C8.80852 7.79809 8.87137 6.84551 9.27576 6.28413C9.4406 6.06194 9.63745 5.87994 9.85922 5.72039C9.90902 5.68493 9.92563 5.6483 9.92444 5.59275C10.3241 3.79988 13.0516 4.14616 13.915 5.41547C14.5411 6.19668 14.7297 7.2308 15.4388 7.95764C16.3935 8.99885 17.481 9.91597 18.3621 11.0257C19.1946 12.0398 19.7911 13.2275 20.3093 14.4259C20.5216 14.823 20.5228 15.3111 20.837 15.6503C20.9924 15.8548 21.7478 16.4126 21.5841 16.61C21.679 16.8144 22.3846 17.0981 22.1403 17.2966L22.1356 17.2919ZM35.3844 11.1758L33.8486 12.7075C33.4395 13.1152 32.9331 13.4202 32.3853 13.5868L32.358 13.5951L32.3473 13.6223C32.1682 14.0926 31.8979 14.511 31.5409 14.8668L30.004 16.3984C29.334 17.0662 28.4422 17.4337 27.4934 17.4337C26.5447 17.4337 25.6529 17.0662 24.9829 16.3996C23.599 15.0204 23.599 12.7749 24.9829 11.3956L26.5198 9.86397C26.9313 9.45386 27.4235 9.15958 27.9808 8.98821L28.0081 8.97994L28.0188 8.95276C28.1967 8.48238 28.4694 8.06282 28.8288 7.70472L30.3645 6.17304C31.0345 5.50529 31.9263 5.13774 32.875 5.13774C33.8237 5.13774 34.7167 5.50529 35.3856 6.17304C36.0544 6.84079 36.4244 7.72954 36.4232 8.67502C36.4232 9.62169 36.0544 10.5104 35.3844 11.177V11.1758Z" fill="#1C3C3C"/>
<path d="M15.8862 15.4375C15.751 15.9611 15.7072 16.8534 15.0241 16.8794C14.9684 17.1819 15.234 17.2954 15.4771 17.1985C15.7167 17.0885 15.8305 17.2847 15.9123 17.4809C16.2823 17.5353 16.8314 17.358 16.8527 16.9195C16.2989 16.6016 16.1282 15.9965 15.8874 15.4375H15.8862Z" fill="#1C3C3C"/>
</svg>
