<svg width="44" height="23" viewBox="0 0 44 23" fill="none" xmlns="http://www.w3.org/2000/svg">
<rect x="0.5" width="43.0004" height="22.8276" rx="11.4138" fill="#EBE8FE"/>
<path d="M32.0508 1.06152C37.7785 1.06163 42.4383 5.70528 42.4385 11.4131C42.4385 17.121 37.7785 21.7655 32.0508 21.7656H11.9492C6.22136 21.7656 1.56152 17.1211 1.56152 11.4131C1.56168 5.70522 6.22146 1.06152 11.9492 1.06152H32.0508ZM13.9131 5.41406C13.0495 4.14506 10.3236 3.79879 9.92383 5.5918C9.92539 5.64694 9.90746 5.68302 9.8584 5.71875C9.63728 5.87981 9.44083 6.06197 9.27539 6.2832C8.87073 6.84453 8.80797 7.79635 9.3125 8.30078C9.33052 8.03393 9.33943 7.78315 9.55078 7.59277C9.94072 7.92621 10.5322 8.04481 10.9844 7.7959C11.9838 9.21964 11.7347 11.1892 12.5293 12.7236C12.7488 13.0863 12.9703 13.4572 13.252 13.7744C13.4815 14.1274 14.2701 14.5455 14.3164 14.874C14.3246 15.437 14.2596 16.0525 14.6299 16.5244C14.8048 16.8774 14.3749 17.2324 14.0293 17.1885C13.5805 17.25 13.0337 16.8875 12.6406 17.1104C12.5014 17.2599 12.229 17.0937 12.1094 17.3018C12.0668 17.4091 11.8424 17.5609 11.9766 17.665C12.1257 17.5528 12.264 17.4352 12.4639 17.502C12.4344 17.6646 12.5635 17.6872 12.665 17.7344C12.6618 17.8434 12.5964 17.9564 12.6816 18.0508C12.7799 17.9515 12.8388 17.8092 12.9961 17.7686C13.5187 18.4617 14.0499 17.0672 15.1787 17.6953C14.9494 17.6839 14.7438 17.7117 14.5898 17.9004C14.5522 17.9427 14.5199 17.9916 14.5869 18.0469C15.1962 17.655 15.1931 18.1806 15.5879 18.0195C15.8926 17.8617 16.1946 17.6628 16.5566 17.7197C16.2045 17.8206 16.1907 18.1023 15.9844 18.3398C15.9483 18.3756 15.9317 18.4183 15.9727 18.4785C16.7016 18.4183 16.761 18.176 17.3506 17.8799C17.7897 17.6114 18.2293 18.26 18.6094 17.8906C18.6945 17.8113 18.809 17.8385 18.9121 17.8271C18.7789 17.1217 17.3179 17.9556 17.3408 17.0088C17.811 16.6899 17.7032 16.0799 17.7344 15.5869C18.275 15.8863 18.8764 16.0593 19.4072 16.3457C19.6759 16.7752 20.0958 17.3441 20.6543 17.3066C20.669 17.2629 20.6819 17.2255 20.6982 17.1816C20.8669 17.211 21.0843 17.3212 21.1777 17.1084C21.43 17.3719 21.8039 17.3593 22.1348 17.291L22.1387 17.292C22.3832 17.0936 21.6785 16.8107 21.583 16.6074C21.7468 16.409 20.9904 15.8527 20.8359 15.6475C20.5214 15.3074 20.5199 14.8189 20.3086 14.4219C19.7892 13.2243 19.1943 12.0362 18.3604 11.0225C17.479 9.91456 16.3926 8.99724 15.4375 7.95605C14.7297 7.23035 14.539 6.19509 13.9131 5.41406ZM30.0137 14.2822C29.7461 14.2492 29.4737 14.2784 29.2197 14.3682C28.9657 14.4582 28.7357 14.6071 28.5498 14.8008C28.3641 14.9946 28.2262 15.2295 28.1484 15.4854C28.0707 15.7415 28.0544 16.013 28.1016 16.2764C28.1488 16.5398 28.2579 16.7888 28.4199 17.0029C28.5819 17.217 28.7931 17.39 29.0352 17.5088C29.277 17.6273 29.5437 17.6886 29.8135 17.6865C30.1818 17.6836 30.5403 17.5636 30.835 17.3447C31.1294 17.1258 31.3461 16.819 31.4521 16.4697C31.558 16.1204 31.5488 15.7458 31.4248 15.4023C31.3007 15.0589 31.0682 14.7632 30.7627 14.5596C30.5387 14.4104 30.2815 14.3154 30.0137 14.2822ZM26.8877 9.4209C26.7059 9.35571 26.5137 9.32057 26.3203 9.31836C25.8645 9.31842 25.4269 9.49807 25.1045 9.81641C24.782 10.135 24.6007 10.568 24.6006 11.0186C24.6007 11.4691 24.782 11.9011 25.1045 12.2197C25.427 12.5383 25.8643 12.7177 26.3203 12.7178C26.5137 12.7156 26.7059 12.6804 26.8877 12.6152L27.8818 14.0771L28.5957 13.6016L27.6104 12.1396C27.7868 11.9394 27.9141 11.7007 27.9805 11.4434H30.6201V10.5938H27.9805C27.914 10.3362 27.787 10.0969 27.6104 9.89648L28.6035 8.43555L27.8818 7.95898L26.8877 9.4209ZM31.0527 8.45898L32.0469 9.90039C31.7763 10.2099 31.6251 10.6064 31.625 11.0186C31.625 11.4716 31.8066 11.9061 32.1299 12.2266C32.4533 12.5469 32.8923 12.7275 33.3496 12.7275C33.8068 12.7274 34.246 12.5469 34.5693 12.2266C34.8924 11.9061 35.0752 11.4715 35.0752 11.0186C35.0751 10.5655 34.8926 10.13 34.5693 9.80957C34.246 9.48947 33.8067 9.30976 33.3496 9.30957C33.1364 9.30961 32.9267 9.34958 32.7314 9.42383L31.7422 7.99023L31.0527 8.45898ZM30.0137 4.3584C29.7461 4.32536 29.4737 4.35455 29.2197 4.44434C28.9657 4.53438 28.7357 4.68326 28.5498 4.87695C28.364 5.07076 28.2262 5.30562 28.1484 5.56152C28.0707 5.81771 28.0544 6.08914 28.1016 6.35254C28.1488 6.61601 28.2579 6.86499 28.4199 7.0791C28.5819 7.29317 28.7932 7.4662 29.0352 7.58496C29.277 7.7035 29.5437 7.76473 29.8135 7.7627C30.1818 7.75973 30.5403 7.63977 30.835 7.4209C31.1294 7.20197 31.3461 6.89518 31.4521 6.5459C31.558 6.19655 31.5487 5.82198 31.4248 5.47852C31.3007 5.13505 31.0682 4.83934 30.7627 4.63574C30.5387 4.48661 30.2815 4.39157 30.0137 4.3584Z" fill="#1C3C3C"/>
<path d="M15.8862 15.4375C15.751 15.9611 15.7072 16.8534 15.0241 16.8794C14.9684 17.1819 15.234 17.2954 15.4771 17.1985C15.7167 17.0885 15.8305 17.2847 15.9123 17.4809C16.2823 17.5353 16.8314 17.358 16.8527 16.9195C16.2989 16.6016 16.1282 15.9965 15.8874 15.4375H15.8862Z" fill="#1C3C3C"/>
</svg>
